<svg version="1.1" id="Layer_1" xmlns="http://www.w3.org/2000/svg" xmlns:xlink="http://www.w3.org/1999/xlink" x="0px" y="0px"
	 width="100%" viewBox="0 0 2560 567" enable-background="new 0 0 2560 567" xml:space="preserve">
<path fill="#000000" opacity="1.000000" stroke="none" 
	d="
M383.000000,568.000000 
	C333.979095,568.000000 284.958221,568.000000 235.447311,567.531738 
	C234.969299,544.917603 234.985275,522.771729 234.983475,500.625885 
	C234.983368,499.298401 235.231720,497.758728 234.657318,496.702240 
	C234.064545,495.611847 232.612946,494.354370 231.526520,494.344604 
	C230.439011,494.334869 228.815445,495.561279 228.371841,496.635895 
	C227.774597,498.082703 228.013565,499.903107 228.012360,501.563263 
	C227.996124,523.708862 228.000656,545.854431 228.000000,568.000000 
	C178.645767,568.000000 129.291550,568.000000 79.483307,567.619629 
	C87.584755,543.219116 96.140228,519.198914 104.709961,495.138641 
	C100.175583,493.105743 98.297516,494.671051 97.099541,498.095581 
	C91.332375,514.581604 85.509186,531.048157 79.658127,547.504578 
	C78.817810,549.868042 77.717537,552.139038 76.167656,555.798340 
	C73.168999,546.904480 70.631493,539.549805 68.210083,532.157104 
	C64.430275,520.617004 60.808598,509.024200 56.904778,497.526794 
	C56.350872,495.895477 54.587173,494.674927 53.383423,493.264252 
	C52.019970,494.704559 50.489262,496.026154 49.352806,497.627533 
	C48.616211,498.665497 48.458755,500.113220 48.036087,501.375397 
	C42.488785,517.941162 36.946541,534.508667 31.379087,551.067749 
	C30.996519,552.205566 30.423529,553.279358 29.622808,555.103516 
	C28.787783,553.240479 28.248444,552.231384 27.870644,551.165161 
	C21.870481,534.231262 15.785133,517.326355 9.977024,500.326660 
	C8.412735,495.748169 6.091846,493.139496 1.000000,494.000000 
	C1.000000,410.645782 1.000000,327.291534 1.403768,243.323563 
	C2.225074,244.716034 2.652314,246.720276 3.058661,248.728775 
	C7.560738,270.981689 14.116022,292.442169 24.799854,312.691620 
	C41.204777,343.784454 63.825787,369.103058 92.514076,389.226471 
	C111.899803,402.824585 133.066559,412.564667 155.789780,419.018341 
	C173.264084,423.981232 191.127335,426.953827 209.257950,426.824432 
	C222.244217,426.731750 235.275146,425.470154 248.185226,423.900269 
	C266.650574,421.654816 284.280914,416.034668 301.178345,408.338562 
	C320.238007,399.657654 337.769928,388.499634 353.674591,374.535553 
	C352.548676,372.967743 351.548706,371.259338 350.251770,369.818176 
	C337.197693,355.312012 326.833099,338.983582 317.976349,321.693665 
	C309.062653,304.292786 302.826111,285.874176 297.985748,266.953461 
	C297.572174,265.336823 296.001801,264.016174 294.968811,262.558044 
	C293.528320,263.622284 291.917542,264.518646 290.675446,265.778503 
	C283.406433,273.151703 276.998108,281.624390 268.858368,287.838562 
	C248.900024,303.075531 226.047302,308.690582 201.011032,305.045135 
	C182.959320,302.416718 167.186646,294.906097 153.580109,282.982941 
	C139.223160,270.402191 129.480789,254.762558 124.674210,236.233856 
	C120.755051,221.126038 120.649780,205.880600 124.682182,190.808456 
	C130.170197,170.295609 141.251282,153.345718 158.166962,140.329285 
	C174.012527,128.136276 192.060883,121.831429 211.894440,121.090302 
	C229.379227,120.436943 245.823029,124.928047 260.714050,134.069565 
	C267.541962,138.261200 273.996033,143.264801 279.908356,148.677155 
	C284.215546,152.620102 287.249023,157.928543 291.091064,162.422409 
	C292.138092,163.647110 294.042175,164.682220 295.579529,164.719925 
	C296.371033,164.739319 297.568176,162.477081 297.985596,161.069046 
	C299.984344,154.327087 301.529572,147.444046 303.688721,140.757355 
	C314.218536,108.147644 330.778625,78.962769 354.487946,52.619598 
	C344.541138,45.512737 335.087555,37.801891 324.745453,31.564240 
	C301.850128,17.755339 277.317139,7.934970 250.674515,3.897393 
	C248.030701,3.496736 245.554169,1.992195 243.000000,0.999999 
	C329.687561,1.000000 416.375122,1.000000 503.350433,1.321048 
	C497.541443,3.052266 491.456055,4.513984 485.346069,5.864187 
	C447.700775,14.183203 414.909302,31.837063 386.719604,57.916176 
	C371.123169,72.344856 358.204102,89.031593 347.595734,107.526581 
	C324.922638,147.055634 315.990906,189.590500 320.256348,234.756149 
	C323.057037,264.412415 331.826447,292.404236 346.670532,318.414337 
	C367.262360,354.495758 395.755096,382.594635 432.358063,402.029663 
	C474.584930,424.450775 519.690186,432.264221 566.851196,423.992065 
	C641.300171,410.933594 694.654785,369.432098 726.772827,301.223358 
	C744.759949,263.024292 749.671204,222.595566 743.077209,180.873718 
	C735.049683,130.081726 711.627808,87.702095 673.168213,53.581425 
	C642.164734,26.075745 606.012512,9.635422 565.235962,2.987716 
	C563.755371,2.746334 562.408936,1.681223 561.000000,1.000000 
	C1227.666626,1.000000 1894.333374,1.000000 2561.000000,1.000000 
	C2561.000000,5.048409 2561.000000,9.047544 2560.531250,13.523457 
	C2438.913574,14.000649 2317.764648,13.999167 2196.615723,14.006057 
	C2189.134766,14.006483 2189.008789,14.131196 2189.006104,21.509121 
	C2188.993408,53.671078 2188.995361,85.833046 2189.003662,117.995010 
	C2189.005615,125.973351 2189.025391,125.990707 2197.127686,125.992783 
	C2231.622559,126.001640 2266.117920,126.059692 2300.612305,125.930008 
	C2305.292725,125.912422 2307.526123,127.389610 2307.019287,132.237808 
	C2306.864014,133.721176 2306.999756,135.234818 2306.999756,136.734589 
	C2307.000244,227.887924 2306.998291,319.041260 2307.004883,410.194611 
	C2307.005371,417.936401 2307.065186,417.993286 2314.825195,417.994934 
	C2354.986084,418.003601 2395.146729,417.998962 2435.307617,417.998077 
	C2436.140869,417.998077 2436.976807,417.939148 2437.806641,417.989380 
	C2441.308838,418.201385 2443.183350,416.772430 2442.993164,413.065277 
	C2442.907715,411.403687 2442.999023,409.733368 2442.999023,408.066986 
	C2443.000488,316.580353 2442.998047,225.093735 2443.005859,133.607117 
	C2443.006348,126.132500 2443.133057,126.005005 2450.516113,126.002815 
	C2487.343994,125.991913 2524.172119,125.999146 2561.000000,126.000000 
	C2561.000000,209.354233 2561.000000,292.708466 2560.688721,376.402344 
	C2559.798096,375.954102 2559.115234,375.222137 2558.655029,374.369995 
	C2550.307129,358.916199 2537.270508,355.706116 2522.794922,358.821289 
	C2509.887451,361.599030 2499.928223,373.748810 2500.940674,389.357697 
	C2501.744385,401.748627 2507.647949,410.493347 2518.879639,415.265564 
	C2530.577881,420.236206 2541.747314,418.971039 2551.295898,410.077271 
	C2554.869385,406.748718 2557.784668,402.713165 2561.000000,399.000000 
	C2561.000000,445.354218 2561.000000,491.708466 2560.667969,538.457520 
	C2553.625244,531.073486 2544.337402,528.623596 2534.882568,526.450317 
	C2531.972656,525.781433 2529.096924,524.892151 2526.284180,523.884033 
	C2519.708984,521.527344 2516.028076,516.958557 2516.245605,511.672211 
	C2516.482422,505.914185 2521.529297,500.648956 2528.034912,499.054291 
	C2536.778076,496.911041 2544.431885,499.575287 2551.673340,504.147614 
	C2553.937500,505.577087 2556.372803,506.213013 2557.512939,503.466431 
	C2557.983398,502.333008 2556.537109,499.558105 2555.201904,498.655640 
	C2545.147949,491.861542 2534.130371,491.002594 2522.813232,494.666626 
	C2514.763428,497.272736 2510.234375,503.819855 2510.034424,511.939880 
	C2509.840820,519.786133 2513.908203,526.210754 2521.879639,529.252441 
	C2527.285156,531.315002 2533.086914,532.315491 2538.615234,534.089539 
	C2542.381592,535.298096 2546.220947,536.617920 2549.602539,538.609619 
	C2554.871094,541.713196 2556.726074,548.575317 2553.376221,553.359619 
	C2551.388184,556.198669 2548.369385,558.996216 2545.200928,560.205811 
	C2534.076904,564.452148 2523.825195,561.526611 2514.968262,554.218262 
	C2511.089600,551.017517 2509.419678,551.991577 2507.353516,556.591064 
	C2511.049561,559.044067 2514.714600,561.511292 2518.417236,563.920471 
	C2520.580322,565.328064 2522.803711,566.643188 2525.000000,568.000000 
	C2470.312500,568.000000 2415.625000,568.000000 2360.449219,567.531616 
	C2359.974609,559.573669 2359.548584,552.046875 2360.176758,544.609131 
	C2360.520020,540.544495 2361.871826,536.115417 2364.112793,532.744019 
	C2371.099609,522.233765 2378.752686,512.168030 2386.084473,501.885040 
	C2387.579346,499.788574 2388.800537,497.497131 2390.289551,495.063934 
	C2386.302734,493.233337 2383.703125,494.039856 2381.602051,497.066589 
	C2376.860352,503.896912 2372.083740,510.703186 2367.293701,517.499756 
	C2364.091553,522.043518 2360.841797,526.553772 2357.070557,531.839539 
	C2356.416504,530.590820 2356.229736,530.113953 2355.943848,529.706543 
	C2348.495361,519.095642 2340.939697,508.558289 2333.632080,497.851471 
	C2331.056641,494.077972 2328.204834,493.121338 2323.807373,495.129486 
	C2324.624512,496.450897 2325.168213,497.445068 2325.818115,498.363953 
	C2333.979248,509.901642 2342.396729,521.269165 2350.175049,533.058716 
	C2352.396484,536.425476 2353.529785,540.951355 2353.835938,545.044800 
	C2354.405029,552.658081 2353.999756,560.344177 2354.000000,568.000000 
	C2305.979248,568.000000 2257.958252,568.000000 2209.355469,567.655151 
	C2201.020264,550.218628 2193.297852,533.112854 2185.498291,516.042542 
	C2182.528809,509.543213 2179.515625,503.055023 2176.216797,496.720978 
	C2175.428223,495.206665 2173.337402,493.310944 2171.987793,493.416077 
	C2170.291260,493.548309 2168.618896,495.429779 2167.176514,496.808105 
	C2166.384033,497.565125 2166.059814,498.826965 2165.569580,499.882111 
	C2156.889404,518.563110 2148.166992,537.224976 2139.581055,555.949097 
	C2137.793701,559.846741 2136.513672,563.976929 2135.000000,568.000000 
	C2087.979004,568.000000 2040.958130,568.000000 1993.481689,567.612183 
	C2000.393066,546.370361 2007.770264,525.519958 2015.116333,504.658630 
	C2016.242065,501.461853 2017.225464,498.214874 2018.294434,494.930664 
	C2013.475220,493.060822 2011.803467,495.163971 2010.605103,498.645905 
	C2006.437622,510.754639 2002.158447,522.825134 1997.871704,534.892456 
	C1995.519531,541.513733 1993.067139,548.099548 1990.660034,554.701355 
	C1988.914062,552.921631 1988.280396,551.264221 1987.728027,549.580078 
	C1982.127563,532.502686 1976.608276,515.397888 1970.854980,498.372223 
	C1970.204590,496.447876 1968.253540,494.963104 1966.905640,493.274597 
	C1965.539429,494.901794 1963.545410,496.314972 1962.906494,498.189941 
	C1957.914917,512.836304 1953.187378,527.572754 1948.369507,542.278381 
	C1946.949341,546.613159 1945.500488,550.938538 1943.686646,556.408875 
	C1942.718384,554.076599 1942.235107,553.048889 1941.857788,551.983643 
	C1935.637207,534.416565 1929.390015,516.858826 1923.250244,499.263458 
	C1921.856201,495.268372 1919.924683,492.829773 1915.051147,494.877441 
	C1915.272461,496.146576 1915.308838,497.314789 1915.684082,498.361572 
	C1920.454956,511.670013 1925.367676,524.928345 1930.051636,538.267151 
	C1933.513916,548.126770 1936.694092,558.085449 1940.000000,568.000000 
	C1892.645752,568.000000 1845.291504,568.000000 1797.444824,567.571716 
	C1797.648071,562.163330 1795.149780,560.833679 1790.570068,560.937134 
	C1780.922241,561.155090 1771.265991,561.028015 1761.613403,560.986389 
	C1755.429443,560.959717 1755.029907,560.586182 1755.017212,554.502441 
	C1754.980591,536.861389 1755.007690,519.220215 1754.989258,501.579071 
	C1754.987549,499.919617 1755.228516,498.101898 1754.635254,496.653076 
	C1754.194092,495.575165 1752.583862,494.338257 1751.497437,494.341278 
	C1750.410645,494.344269 1748.810547,495.588898 1748.370239,496.670013 
	C1747.779175,498.120758 1748.018433,499.937073 1748.017090,501.596588 
	C1747.999512,523.731079 1748.002319,545.865540 1748.000000,568.000000 
	C1707.979126,568.000000 1667.958130,568.000000 1627.406616,567.630005 
	C1626.562866,566.147217 1626.393677,564.968140 1625.915649,563.931458 
	C1615.668823,541.712708 1605.444946,519.482666 1595.003418,497.355438 
	C1594.164185,495.577087 1591.662231,493.302917 1590.143433,493.448883 
	C1588.232544,493.632599 1585.770630,495.706573 1584.870117,497.595825 
	C1576.348877,515.473877 1568.055542,533.461548 1559.821777,551.474915 
	C1557.346069,556.891052 1555.263062,562.486633 1553.000000,568.000000 
	C1461.312378,568.000000 1369.624878,568.000000 1277.597168,567.687866 
	C1277.740845,566.933899 1278.152710,566.339844 1278.719116,566.072754 
	C1291.245972,560.162170 1295.998413,549.727722 1295.999023,536.507263 
	C1295.999634,525.180847 1296.003418,513.854370 1295.995483,502.527924 
	C1295.994385,500.863098 1296.308594,499.069092 1295.789673,497.573120 
	C1295.348022,496.299530 1293.916870,495.369141 1292.923584,494.286865 
	C1291.976685,495.420288 1290.664307,496.419495 1290.184937,497.724701 
	C1289.696777,499.053894 1290.006226,500.684113 1290.004761,502.182587 
	C1289.993896,513.509033 1290.178711,524.839722 1289.922974,536.160461 
	C1289.750977,543.770691 1288.281738,551.389832 1282.457764,556.755066 
	C1270.058350,568.177856 1248.000366,561.858337 1243.549561,545.684143 
	C1242.336060,541.274597 1242.152954,536.497864 1242.064819,531.878845 
	C1241.851807,520.722900 1242.084351,509.557983 1241.821289,498.404144 
	C1241.788330,497.008270 1239.850952,495.657349 1238.795898,494.285583 
	C1237.878052,495.627014 1236.938599,496.954559 1236.062988,498.323059 
	C1235.909058,498.563599 1236.015625,498.975922 1236.015625,499.308899 
	C1236.017700,513.133728 1235.838013,526.962097 1236.099854,540.782043 
	C1236.236450,547.983337 1238.752441,554.572021 1244.166626,559.557739 
	C1247.523071,562.648499 1251.372070,565.204163 1255.000000,568.000000 
	C1199.312378,568.000000 1143.624878,568.000000 1087.587402,567.678101 
	C1087.976685,566.712219 1088.617554,565.862854 1089.469849,565.454956 
	C1105.117676,557.965515 1112.328369,545.471252 1112.020508,528.248291 
	C1111.650024,507.534882 1094.203979,489.267029 1070.122681,492.893433 
	C1051.892700,495.638702 1041.255249,506.706390 1038.581055,527.446167 
	C1036.871948,540.700012 1043.436279,557.555359 1059.258179,564.682007 
	C1060.986450,565.460388 1062.426392,566.878540 1064.000000,568.000000 
	C1006.312439,568.000000 948.624878,568.000000 890.448853,567.531677 
	C889.976440,558.743225 889.794617,550.415283 890.123535,542.107544 
	C890.228638,539.452393 891.122986,536.461182 892.622314,534.291199 
	C899.707031,524.036987 907.154114,514.033813 914.409058,503.896027 
	C916.443542,501.053101 918.263733,498.056824 920.328857,494.907379 
	C915.563477,493.148438 912.867798,494.434753 910.669250,497.879608 
	C907.720093,502.500458 904.497437,506.948944 901.334351,511.430603 
	C896.785034,517.876465 892.183655,524.285645 887.109070,531.405396 
	C884.802917,528.437561 883.016113,526.327271 881.436462,524.071838 
	C875.240540,515.224976 869.072144,506.358185 862.973633,497.443970 
	C860.539978,493.886658 857.697754,492.989868 853.422180,495.401215 
	C862.768188,508.615265 871.994751,521.400757 880.867371,534.427307 
	C882.610901,536.987183 883.699097,540.442200 883.856262,543.546753 
	C884.267944,551.679443 883.998169,559.846558 884.000000,568.000000 
	C788.312439,568.000000 692.624878,568.000000 596.449097,567.531616 
	C595.967163,544.406189 595.979431,521.749023 595.970825,499.091888 
	C595.969910,496.673950 595.870300,494.176239 592.493774,494.181030 
	C589.115417,494.185791 589.040649,496.691254 589.029358,499.104370 
	C588.996521,506.101318 589.028259,513.098572 588.992249,520.095459 
	C588.958679,526.626404 588.649048,526.959778 582.282898,526.987061 
	C573.286804,527.025696 564.290405,527.021851 555.294189,526.994324 
	C542.930603,526.956482 544.061279,528.057861 544.000549,515.675537 
	C543.971130,509.678680 544.095398,503.674194 543.790955,497.691467 
	C543.730896,496.513184 542.024170,495.418732 541.076904,494.285583 
	C540.083252,495.368042 538.651672,496.298676 538.210022,497.572479 
	C537.691284,499.068817 538.004761,500.863190 538.004272,502.528290 
	C537.997986,524.352173 538.000061,546.176086 538.000000,568.000000 
	C488.979095,568.000000 439.958221,568.000000 390.448975,567.531616 
	C389.975555,546.416138 390.074738,525.768433 389.938812,505.122284 
	C389.909363,500.651459 391.380005,498.716492 395.996216,498.946198 
	C400.977966,499.194122 405.993286,499.133057 410.971344,498.832184 
	C412.215546,498.756958 413.372864,497.243317 414.570099,496.390808 
	C413.465576,495.618164 412.366943,494.182251 411.255646,494.172394 
	C394.773407,494.026367 378.289093,494.025055 361.806763,494.164886 
	C360.678467,494.174469 359.561981,495.575439 358.440002,496.329346 
	C359.612915,497.201355 360.742401,498.747650 361.966400,498.826477 
	C366.776215,499.136200 371.616058,498.960663 376.444275,499.008972 
	C382.591797,499.070496 382.973114,499.406586 382.982697,505.559937 
	C383.015137,526.373291 382.998108,547.186646 383.000000,568.000000 
M953.226074,22.255379 
	C950.529541,14.005982 950.529541,14.001305 941.843018,14.001132 
	C888.010559,14.000060 834.178101,13.996316 780.345642,14.007655 
	C773.210388,14.009159 773.008057,14.206321 773.007629,21.280729 
	C772.999390,151.111954 772.999268,280.943176 773.007935,410.774414 
	C773.008423,417.809387 773.204712,417.993591 780.394104,417.996307 
	C815.393555,418.009460 850.392944,418.005524 885.392395,418.001343 
	C893.982971,418.000305 893.996521,417.989471 893.997009,409.489197 
	C894.001160,339.323669 893.996460,269.158142 894.015747,198.992615 
	C894.016357,196.772751 894.246521,194.552948 894.369629,192.333115 
	C894.810791,192.258759 895.251892,192.184387 895.692993,192.110031 
	C896.332764,193.505951 897.089478,194.860886 897.595215,196.303787 
	C911.585754,236.217270 925.582214,276.128662 939.510010,316.064026 
	C950.751587,348.297424 961.954895,380.544464 973.031006,412.834930 
	C974.320068,416.593079 976.285400,418.072235 980.260559,418.056030 
	C1008.759583,417.940094 1037.259644,417.939087 1065.758667,418.056427 
	C1069.751953,418.072876 1071.702393,416.549347 1072.970337,412.804382 
	C1087.285156,370.525940 1101.735229,328.293243 1116.143188,286.046295 
	C1126.411743,255.937103 1136.663818,225.822281 1146.959351,195.722336 
	C1147.448242,194.292938 1148.288818,192.983887 1148.965698,191.618805 
	C1149.466187,191.700684 1149.966797,191.782547 1150.467285,191.864426 
	C1150.644775,194.226654 1150.976440,196.588837 1150.977417,198.951141 
	C1151.005127,269.449982 1150.997070,339.948853 1151.005371,410.447693 
	C1151.006226,417.877319 1151.125366,417.995056 1158.566040,417.997406 
	C1193.898804,418.008667 1229.231445,418.009216 1264.564209,417.996521 
	C1271.869751,417.993896 1271.992065,417.860718 1271.994873,410.315063 
	C1272.005981,379.648895 1272.000122,348.982727 1272.000122,318.316559 
	C1272.000000,219.484833 1272.001465,120.653099 1271.995728,21.821373 
	C1271.995361,14.388646 1271.749146,14.022325 1265.695190,14.019665 
	C1210.696045,13.995502 1155.696899,14.045263 1100.697998,13.930552 
	C1096.274048,13.921324 1094.171753,15.543934 1092.856445,19.708954 
	C1087.390991,37.017826 1081.662842,54.244015 1075.991821,71.487709 
	C1059.081665,122.906357 1042.157715,174.320526 1025.208740,225.726379 
	C1024.690063,227.299454 1023.833801,228.761261 1023.134888,230.274933 
	C1022.608093,230.253784 1022.081299,230.232635 1021.554443,230.211487 
	C998.869629,161.140656 976.184753,92.069824 953.226074,22.255379 
M1299.000000,41.500000 
	C1299.000366,164.472885 1298.998901,287.445770 1299.005615,410.418640 
	C1299.005981,417.817719 1299.148560,417.989532 1305.992554,417.990173 
	C1417.301880,418.000671 1528.611084,418.000610 1639.920410,417.990356 
	C1646.728149,417.989746 1646.985474,417.732056 1646.988892,410.955811 
	C1647.006592,376.796539 1647.004639,342.637238 1646.992188,308.477966 
	C1646.989502,301.127533 1646.862915,301.008209 1639.354370,301.005920 
	C1603.362183,300.994995 1567.369995,301.000793 1531.377808,300.999847 
	C1500.717773,300.999054 1470.057373,300.930176 1439.397949,301.066956 
	C1434.728882,301.087769 1432.758301,299.638702 1432.930298,294.771637 
	C1433.206787,286.949829 1432.994385,279.110992 1433.002197,271.279358 
	C1433.010498,263.018311 1433.017456,263.004211 1441.343262,263.002808 
	C1479.668335,262.996246 1517.993530,262.957977 1556.318359,263.052612 
	C1560.680054,263.063385 1563.106323,262.227448 1563.075317,257.056976 
	C1562.902100,228.230911 1562.946289,199.403168 1563.037964,170.576370 
	C1563.050781,166.518143 1561.550415,164.874725 1557.455322,164.958817 
	C1549.293945,165.126358 1541.126709,164.998398 1532.961792,164.997940 
	C1502.135132,164.996185 1471.308472,165.004105 1440.481812,164.990768 
	C1433.126465,164.987595 1433.020020,164.861420 1433.004028,157.357620 
	C1432.987305,149.526031 1432.996582,141.694351 1433.000977,133.862717 
	C1433.005981,125.011902 1433.009155,125.002205 1441.759766,125.001755 
	C1507.745483,124.998329 1573.731323,125.003319 1639.717041,124.992180 
	C1646.791016,124.990990 1646.987549,124.788902 1646.991211,117.657829 
	C1647.006836,87.497688 1646.999390,57.337532 1646.999634,27.177383 
	C1646.999634,24.677935 1646.866333,22.170788 1647.017944,19.680794 
	C1647.259521,15.710489 1645.735107,13.659054 1641.550293,13.997269 
	C1640.226318,14.104280 1638.885742,14.001295 1637.552734,14.001287 
	C1527.909790,14.000648 1418.266724,14.000651 1308.623779,14.001135 
	C1307.290771,14.001142 1305.950562,14.098338 1304.625977,13.994718 
	C1300.605957,13.680266 1298.858521,15.370734 1298.963501,19.505867 
	C1299.141113,26.499710 1299.004395,33.501534 1299.000000,41.500000 
M1673.000000,364.500000 
	C1673.000366,379.830353 1672.988403,395.160675 1673.006104,410.491028 
	C1673.014648,417.868469 1673.135864,417.993652 1680.616821,417.994171 
	C1783.931519,418.000946 1887.246338,418.001099 1990.561035,417.993042 
	C1997.870728,417.992493 1997.992676,417.857239 1997.994995,410.316650 
	C1998.005371,376.989319 1998.003052,343.661957 1997.997559,310.334625 
	C1997.996216,302.019196 1997.982788,302.003632 1989.711914,302.002899 
	C1932.722168,301.997986 1875.732422,302.000610 1818.742676,301.997864 
	C1816.909912,301.997772 1815.076904,301.940765 1813.244385,301.955017 
	C1810.309814,301.977844 1809.006958,300.473328 1809.037476,297.618317 
	C1809.057129,295.785889 1809.001831,293.952759 1809.001831,292.119965 
	C1808.999268,202.136154 1809.000854,112.152344 1808.995605,22.168537 
	C1808.995239,14.027576 1808.975952,14.006380 1801.041870,14.004832 
	C1761.049072,13.997031 1721.056274,14.000650 1681.063477,14.003649 
	C1679.730713,14.003749 1678.121948,13.575690 1677.128418,14.166079 
	C1675.555420,15.100634 1673.840698,16.511360 1673.208862,18.121933 
	C1672.526611,19.861326 1673.002441,22.061741 1673.002319,24.061071 
	C1672.999634,137.207382 1673.000000,250.353683 1673.000000,364.500000 
M2078.500000,14.000621 
	C2063.500244,14.000993 2048.500488,13.988864 2033.500732,14.007073 
	C2026.131104,14.016021 2026.006470,14.136195 2026.006104,21.627939 
	C2025.999878,151.293427 2025.999756,280.958893 2026.007690,410.624390 
	C2026.008179,417.789795 2026.202881,417.988983 2033.251099,417.991394 
	C2073.417480,418.005035 2113.583740,418.005035 2153.750000,417.991302 
	C2160.799072,417.988892 2160.992676,417.790070 2160.993164,410.622833 
	C2161.000488,280.790680 2161.000488,150.958527 2160.990723,21.126379 
	C2160.990234,14.283813 2160.726562,14.016879 2153.999268,14.011052 
	C2129.166260,13.989541 2104.333008,14.001346 2078.500000,14.000621 
M720.042358,521.566772 
	C715.655029,527.217468 716.006226,534.622803 720.841187,538.407654 
	C726.001160,542.446899 733.294617,541.437744 737.130798,536.153809 
	C739.966064,532.248413 739.484253,525.721497 736.072510,521.818481 
	C732.724182,517.988037 726.551331,517.686340 720.042358,521.566772 
M1431.958008,539.754456 
	C1437.051270,537.006836 1439.165894,532.424377 1437.640015,527.192932 
	C1436.784668,524.260559 1434.103027,521.179565 1431.403687,519.622864 
	C1427.151489,517.170715 1421.279785,518.872681 1418.649536,522.163330 
	C1415.619629,525.953735 1415.144653,532.051819 1417.589111,535.777649 
	C1420.512573,540.234131 1425.088745,541.656860 1431.958008,539.754456 
z"/>
<path fill="#1C1F2A" opacity="1.000000" stroke="none" 
	d="
M560.531372,1.000000 
	C562.408936,1.681223 563.755371,2.746334 565.235962,2.987716 
	C606.012512,9.635422 642.164734,26.075745 673.168213,53.581425 
	C711.627808,87.702095 735.049683,130.081726 743.077209,180.873718 
	C749.671204,222.595566 744.759949,263.024292 726.772827,301.223358 
	C694.654785,369.432098 641.300171,410.933594 566.851196,423.992065 
	C519.690186,432.264221 474.584930,424.450775 432.358063,402.029663 
	C395.755096,382.594635 367.262360,354.495758 346.670532,318.414337 
	C331.826447,292.404236 323.057037,264.412415 320.256348,234.756149 
	C315.990906,189.590500 324.922638,147.055634 347.595734,107.526581 
	C358.204102,89.031593 371.123169,72.344856 386.719604,57.916176 
	C414.909302,31.837063 447.700775,14.183203 485.346069,5.864187 
	C491.456055,4.513984 497.541443,3.052266 503.819092,1.321048 
	C522.687561,1.000000 541.375122,1.000000 560.531372,1.000000 
M440.572174,210.863297 
	C440.702301,213.827469 440.841309,216.791290 440.961151,219.755875 
	C441.878448,242.449966 450.942596,261.819397 466.514496,277.800781 
	C489.103424,300.983673 517.071167,310.264526 548.909973,304.698242 
	C578.273499,299.564636 600.353760,283.372955 614.624939,256.785492 
	C623.663208,239.947174 626.882629,222.118851 624.904846,203.306717 
	C622.585571,181.246460 613.240356,162.154495 597.218445,147.177139 
	C575.865662,127.216377 550.325745,118.087822 520.743225,121.982674 
	C499.607025,124.765465 481.582794,134.081497 466.896973,149.068436 
	C450.489197,165.812607 441.380798,186.209641 440.572174,210.863297 
z"/>
<path fill="#00BC70" opacity="1.000000" stroke="none" 
	d="
M242.531342,0.999999 
	C245.554169,1.992195 248.030701,3.496736 250.674515,3.897393 
	C277.317139,7.934970 301.850128,17.755339 324.745453,31.564240 
	C335.087555,37.801891 344.541138,45.512737 354.487946,52.619598 
	C330.778625,78.962769 314.218536,108.147644 303.688721,140.757355 
	C301.529572,147.444046 299.984344,154.327087 297.985596,161.069046 
	C297.568176,162.477081 296.371033,164.739319 295.579529,164.719925 
	C294.042175,164.682220 292.138092,163.647110 291.091064,162.422409 
	C287.249023,157.928543 284.215546,152.620102 279.908356,148.677155 
	C273.996033,143.264801 267.541962,138.261200 260.714050,134.069565 
	C245.823029,124.928047 229.379227,120.436943 211.894440,121.090302 
	C192.060883,121.831429 174.012527,128.136276 158.166962,140.329285 
	C141.251282,153.345718 130.170197,170.295609 124.682182,190.808456 
	C120.649780,205.880600 120.755051,221.126038 124.674210,236.233856 
	C129.480789,254.762558 139.223160,270.402191 153.580109,282.982941 
	C167.186646,294.906097 182.959320,302.416718 201.011032,305.045135 
	C226.047302,308.690582 248.900024,303.075531 268.858368,287.838562 
	C276.998108,281.624390 283.406433,273.151703 290.675446,265.778503 
	C291.917542,264.518646 293.528320,263.622284 294.968811,262.558044 
	C296.001801,264.016174 297.572174,265.336823 297.985748,266.953461 
	C302.826111,285.874176 309.062653,304.292786 317.976349,321.693665 
	C326.833099,338.983582 337.197693,355.312012 350.251770,369.818176 
	C351.548706,371.259338 352.548676,372.967743 353.674591,374.535553 
	C337.769928,388.499634 320.238007,399.657654 301.178345,408.338562 
	C284.280914,416.034668 266.650574,421.654816 248.185226,423.900269 
	C235.275146,425.470154 222.244217,426.731750 209.257950,426.824432 
	C191.127335,426.953827 173.264084,423.981232 155.789780,419.018341 
	C133.066559,412.564667 111.899803,402.824585 92.514076,389.226471 
	C63.825787,369.103058 41.204777,343.784454 24.799854,312.691620 
	C14.116022,292.442169 7.560738,270.981689 3.058661,248.728775 
	C2.652314,246.720276 2.225074,244.716034 1.403768,242.854904 
	C1.000000,223.645767 1.000000,204.291550 1.384642,184.674088 
	C2.571874,180.481995 3.321875,176.541534 4.185620,172.626160 
	C9.658154,147.819016 18.490446,124.392464 31.706520,102.558769 
	C43.401382,83.238213 58.270672,66.633705 74.989243,51.839474 
	C90.368362,38.230518 107.776810,27.304790 126.731316,19.045267 
	C144.666290,11.230010 163.114105,5.285889 182.619034,2.918130 
	C183.477646,2.813900 184.209244,1.663231 185.000000,1.000000 
	C204.020889,1.000000 223.041794,1.000000 242.531342,0.999999 
z"/>
<path fill="#1C1F2A" opacity="1.000000" stroke="none" 
	d="
M2561.000000,125.531342 
	C2524.172119,125.999146 2487.343994,125.991913 2450.516113,126.002815 
	C2443.133057,126.005005 2443.006348,126.132500 2443.005859,133.607117 
	C2442.998047,225.093735 2443.000488,316.580353 2442.999023,408.066986 
	C2442.999023,409.733368 2442.907715,411.403687 2442.993164,413.065277 
	C2443.183350,416.772430 2441.308838,418.201385 2437.806641,417.989380 
	C2436.976807,417.939148 2436.140869,417.998077 2435.307617,417.998077 
	C2395.146729,417.998962 2354.986084,418.003601 2314.825195,417.994934 
	C2307.065186,417.993286 2307.005371,417.936401 2307.004883,410.194611 
	C2306.998291,319.041260 2307.000244,227.887924 2306.999756,136.734589 
	C2306.999756,135.234818 2306.864014,133.721176 2307.019287,132.237808 
	C2307.526123,127.389610 2305.292725,125.912422 2300.612305,125.930008 
	C2266.117920,126.059692 2231.622559,126.001640 2197.127686,125.992783 
	C2189.025391,125.990707 2189.005615,125.973351 2189.003662,117.995010 
	C2188.995361,85.833046 2188.993408,53.671078 2189.006104,21.509121 
	C2189.008789,14.131196 2189.134766,14.006483 2196.615723,14.006057 
	C2317.764648,13.999167 2438.913574,14.000649 2560.531250,14.000118 
	C2561.000000,51.020893 2561.000000,88.041786 2561.000000,125.531342 
z"/>
<path fill="#000000" opacity="1.000000" stroke="none" 
	d="
M184.531342,1.000000 
	C184.209244,1.663231 183.477646,2.813900 182.619034,2.918130 
	C163.114105,5.285889 144.666290,11.230010 126.731316,19.045267 
	C107.776810,27.304790 90.368362,38.230518 74.989243,51.839474 
	C58.270672,66.633705 43.401382,83.238213 31.706520,102.558769 
	C18.490446,124.392464 9.658154,147.819016 4.185620,172.626160 
	C3.321875,176.541534 2.571874,180.481995 1.384642,184.205429 
	C1.000000,123.072777 1.000000,62.145550 1.000000,1.000000 
	C62.020721,1.000000 123.041702,1.000000 184.531342,1.000000 
z"/>
<path fill="#1C1F2A" opacity="1.000000" stroke="none" 
	d="
M1.000000,494.428467 
	C6.091846,493.139496 8.412735,495.748169 9.977024,500.326660 
	C15.785133,517.326355 21.870481,534.231262 27.870644,551.165161 
	C28.248444,552.231384 28.787783,553.240479 29.622808,555.103516 
	C30.423529,553.279358 30.996519,552.205566 31.379087,551.067749 
	C36.946541,534.508667 42.488785,517.941162 48.036087,501.375397 
	C48.458755,500.113220 48.616211,498.665497 49.352806,497.627533 
	C50.489262,496.026154 52.019970,494.704559 53.383423,493.264252 
	C54.587173,494.674927 56.350872,495.895477 56.904778,497.526794 
	C60.808598,509.024200 64.430275,520.617004 68.210083,532.157104 
	C70.631493,539.549805 73.168999,546.904480 76.167656,555.798340 
	C77.717537,552.139038 78.817810,549.868042 79.658127,547.504578 
	C85.509186,531.048157 91.332375,514.581604 97.099541,498.095581 
	C98.297516,494.671051 100.175583,493.105743 104.709961,495.138641 
	C96.140228,519.198914 87.584755,543.219116 79.014648,567.619629 
	C77.285645,568.000000 75.571281,568.000000 73.434898,567.599854 
	C68.669205,553.773132 64.377258,540.329407 59.958961,526.927368 
	C57.905704,520.699280 55.606915,514.552063 53.419434,508.368195 
	C52.968956,508.339752 52.518482,508.311310 52.068005,508.282867 
	C45.378674,528.188599 38.689342,548.094299 32.000008,568.000000 
	C30.611111,568.000000 29.222221,568.000000 27.358957,567.635559 
	C19.811617,547.664673 12.798653,528.036194 5.601943,508.475281 
	C4.503593,505.489929 2.555216,502.817291 0.999995,500.000000 
	C1.000000,498.285645 1.000000,496.571289 1.000000,494.428467 
z"/>
<path fill="#1C1F2A" opacity="1.000000" stroke="none" 
	d="
M1940.428467,568.000000 
	C1936.694092,558.085449 1933.513916,548.126770 1930.051636,538.267151 
	C1925.367676,524.928345 1920.454956,511.670013 1915.684082,498.361572 
	C1915.308838,497.314789 1915.272461,496.146576 1915.051147,494.877441 
	C1919.924683,492.829773 1921.856201,495.268372 1923.250244,499.263458 
	C1929.390015,516.858826 1935.637207,534.416565 1941.857788,551.983643 
	C1942.235107,553.048889 1942.718384,554.076599 1943.686646,556.408875 
	C1945.500488,550.938538 1946.949341,546.613159 1948.369507,542.278381 
	C1953.187378,527.572754 1957.914917,512.836304 1962.906494,498.189941 
	C1963.545410,496.314972 1965.539429,494.901794 1966.905640,493.274597 
	C1968.253540,494.963104 1970.204590,496.447876 1970.854980,498.372223 
	C1976.608276,515.397888 1982.127563,532.502686 1987.728027,549.580078 
	C1988.280396,551.264221 1988.914062,552.921631 1990.660034,554.701355 
	C1993.067139,548.099548 1995.519531,541.513733 1997.871704,534.892456 
	C2002.158447,522.825134 2006.437622,510.754639 2010.605103,498.645905 
	C2011.803467,495.163971 2013.475220,493.060822 2018.294434,494.930664 
	C2017.225464,498.214874 2016.242065,501.461853 2015.116333,504.658630 
	C2007.770264,525.519958 2000.393066,546.370361 1993.013062,567.612183 
	C1991.285645,568.000000 1989.571289,568.000000 1987.414551,567.612061 
	C1980.456665,547.320312 1973.941406,527.416382 1967.426025,507.512512 
	C1966.952637,507.563110 1966.479248,507.613678 1966.005859,507.664276 
	C1963.108398,516.277832 1960.178345,524.880493 1957.321777,533.507568 
	C1953.517944,544.995178 1949.771240,556.501648 1946.000000,568.000000 
	C1944.285645,568.000000 1942.571289,568.000000 1940.428467,568.000000 
z"/>
<path fill="#000000" opacity="1.000000" stroke="none" 
	d="
M589.000000,568.000000 
	C574.312439,568.000000 559.624878,568.000000 544.449158,567.531616 
	C543.977905,557.579590 544.101807,548.094299 543.961243,538.612915 
	C543.901672,534.594360 545.376282,532.906921 549.499695,532.961853 
	C560.811646,533.112488 572.128174,533.108887 583.440247,532.961914 
	C587.506165,532.909119 589.103699,534.477173 589.039917,538.552185 
	C588.886292,548.365967 588.996277,558.183777 589.000000,568.000000 
z"/>
<path fill="#1C1F2A" opacity="1.000000" stroke="none" 
	d="
M1064.468628,568.000000 
	C1062.426392,566.878540 1060.986450,565.460388 1059.258179,564.682007 
	C1043.436279,557.555359 1036.871948,540.700012 1038.581055,527.446167 
	C1041.255249,506.706390 1051.892700,495.638702 1070.122681,492.893433 
	C1094.203979,489.267029 1111.650024,507.534882 1112.020508,528.248291 
	C1112.328369,545.471252 1105.117676,557.965515 1089.469849,565.454956 
	C1088.617554,565.862854 1087.976685,566.712219 1087.118652,567.678101 
	C1079.645752,568.000000 1072.291504,568.000000 1064.468628,568.000000 
M1102.503540,544.798035 
	C1103.084717,543.062195 1103.733887,541.345764 1104.236328,539.587402 
	C1107.810547,527.082581 1103.230835,512.468811 1094.305176,505.114502 
	C1081.811523,494.820160 1063.725464,496.536560 1052.999146,508.303070 
	C1041.057861,521.402344 1043.051758,546.091431 1057.451050,556.343445 
	C1071.269775,566.182129 1092.072388,564.144714 1102.503540,544.798035 
z"/>
<path fill="#000000" opacity="1.000000" stroke="none" 
	d="
M32.468666,568.000000 
	C38.689342,548.094299 45.378674,528.188599 52.068005,508.282867 
	C52.518482,508.311310 52.968956,508.339752 53.419434,508.368195 
	C55.606915,514.552063 57.905704,520.699280 59.958961,526.927368 
	C64.377258,540.329407 68.669205,553.773132 73.006439,567.599854 
	C59.645771,568.000000 46.291546,568.000000 32.468666,568.000000 
z"/>
<path fill="#000000" opacity="1.000000" stroke="none" 
	d="
M1946.468628,568.000000 
	C1949.771240,556.501648 1953.517944,544.995178 1957.321777,533.507568 
	C1960.178345,524.880493 1963.108398,516.277832 1966.005859,507.664276 
	C1966.479248,507.613678 1966.952637,507.563110 1967.426025,507.512512 
	C1973.941406,527.416382 1980.456665,547.320312 1986.986084,567.612061 
	C1973.645752,568.000000 1960.291504,568.000000 1946.468628,568.000000 
z"/>
<path fill="#1C1F2A" opacity="1.000000" stroke="none" 
	d="
M589.437500,568.000000 
	C588.996277,558.183777 588.886292,548.365967 589.039917,538.552185 
	C589.103699,534.477173 587.506165,532.909119 583.440247,532.961914 
	C572.128174,533.108887 560.811646,533.112488 549.499695,532.961853 
	C545.376282,532.906921 543.901672,534.594360 543.961243,538.612915 
	C544.101807,548.094299 543.977905,557.579590 543.980469,567.531616 
	C542.285645,568.000000 540.571289,568.000000 538.428467,568.000000 
	C538.000061,546.176086 537.997986,524.352173 538.004272,502.528290 
	C538.004761,500.863190 537.691284,499.068817 538.210022,497.572479 
	C538.651672,496.298676 540.083252,495.368042 541.076904,494.285583 
	C542.024170,495.418732 543.730896,496.513184 543.790955,497.691467 
	C544.095398,503.674194 543.971130,509.678680 544.000549,515.675537 
	C544.061279,528.057861 542.930603,526.956482 555.294189,526.994324 
	C564.290405,527.021851 573.286804,527.025696 582.282898,526.987061 
	C588.649048,526.959778 588.958679,526.626404 588.992249,520.095459 
	C589.028259,513.098572 588.996521,506.101318 589.029358,499.104370 
	C589.040649,496.691254 589.115417,494.185791 592.493774,494.181030 
	C595.870300,494.176239 595.969910,496.673950 595.970825,499.091888 
	C595.979431,521.749023 595.967163,544.406189 595.980469,567.531616 
	C593.958313,568.000000 591.916687,568.000000 589.437500,568.000000 
z"/>
<path fill="#1C1F2A" opacity="1.000000" stroke="none" 
	d="
M1553.437500,568.000000 
	C1555.263062,562.486633 1557.346069,556.891052 1559.821777,551.474915 
	C1568.055542,533.461548 1576.348877,515.473877 1584.870117,497.595825 
	C1585.770630,495.706573 1588.232544,493.632599 1590.143433,493.448883 
	C1591.662231,493.302917 1594.164185,495.577087 1595.003418,497.355438 
	C1605.444946,519.482666 1615.668823,541.712708 1625.915649,563.931458 
	C1626.393677,564.968140 1626.562866,566.147217 1626.937988,567.630005 
	C1624.958374,568.000000 1622.916626,568.000000 1620.381592,567.638062 
	C1617.436523,561.637939 1615.235840,555.867615 1612.380127,550.442139 
	C1611.522217,548.812195 1608.863403,547.231018 1606.989258,547.182190 
	C1595.510742,546.883301 1584.019165,546.948425 1572.535645,547.127319 
	C1570.975586,547.151672 1568.601562,548.089966 1568.027100,549.287598 
	C1565.094482,555.401794 1562.628906,561.740051 1560.000000,568.000000 
	C1557.958374,568.000000 1555.916626,568.000000 1553.437500,568.000000 
M1587.108398,506.764099 
	C1582.149658,517.712219 1577.190918,528.660339 1571.824829,540.507812 
	C1584.299805,540.507812 1595.417969,540.507812 1607.855469,540.507812 
	C1601.855957,527.334961 1596.251099,515.028870 1590.241699,501.834503 
	C1588.832275,503.989868 1588.129761,505.064209 1587.108398,506.764099 
z"/>
<path fill="#1C1F2A" opacity="1.000000" stroke="none" 
	d="
M2135.437500,568.000000 
	C2136.513672,563.976929 2137.793701,559.846741 2139.581055,555.949097 
	C2148.166992,537.224976 2156.889404,518.563110 2165.569580,499.882111 
	C2166.059814,498.826965 2166.384033,497.565125 2167.176514,496.808105 
	C2168.618896,495.429779 2170.291260,493.548309 2171.987793,493.416077 
	C2173.337402,493.310944 2175.428223,495.206665 2176.216797,496.720978 
	C2179.515625,503.055023 2182.528809,509.543213 2185.498291,516.042542 
	C2193.297852,533.112854 2201.020264,550.218628 2208.886719,567.655151 
	C2206.958252,568.000000 2204.916748,568.000000 2202.382812,567.642029 
	C2199.428223,561.821106 2197.221924,556.218140 2194.359863,550.973022 
	C2193.389648,549.194885 2190.795898,547.263733 2188.889160,547.205872 
	C2177.402344,546.856995 2165.897705,546.930786 2154.404053,547.142212 
	C2152.701660,547.173523 2150.114014,548.256104 2149.494629,549.580933 
	C2146.690430,555.577637 2144.445801,561.835876 2142.000000,568.000000 
	C2139.958252,568.000000 2137.916748,568.000000 2135.437500,568.000000 
M2187.433594,535.017395 
	C2182.381836,524.077209 2177.330078,513.137024 2171.659424,500.856293 
	C2165.435059,514.634338 2159.789795,527.130066 2153.756104,540.485474 
	C2166.337402,540.485474 2177.457520,540.485474 2188.493408,540.485474 
	C2188.644287,539.651123 2188.816650,539.299377 2188.740723,539.013428 
	C2188.443604,537.891418 2188.067871,536.790161 2187.433594,535.017395 
z"/>
<path fill="#1C1F2A" opacity="1.000000" stroke="none" 
	d="
M2525.468506,568.000000 
	C2522.803711,566.643188 2520.580322,565.328064 2518.417236,563.920471 
	C2514.714600,561.511292 2511.049561,559.044067 2507.353516,556.591064 
	C2509.419678,551.991577 2511.089600,551.017517 2514.968262,554.218262 
	C2523.825195,561.526611 2534.076904,564.452148 2545.200928,560.205811 
	C2548.369385,558.996216 2551.388184,556.198669 2553.376221,553.359619 
	C2556.726074,548.575317 2554.871094,541.713196 2549.602539,538.609619 
	C2546.220947,536.617920 2542.381592,535.298096 2538.615234,534.089539 
	C2533.086914,532.315491 2527.285156,531.315002 2521.879639,529.252441 
	C2513.908203,526.210754 2509.840820,519.786133 2510.034424,511.939880 
	C2510.234375,503.819855 2514.763428,497.272736 2522.813232,494.666626 
	C2534.130371,491.002594 2545.147949,491.861542 2555.201904,498.655640 
	C2556.537109,499.558105 2557.983398,502.333008 2557.512939,503.466431 
	C2556.372803,506.213013 2553.937500,505.577087 2551.673340,504.147614 
	C2544.431885,499.575287 2536.778076,496.911041 2528.034912,499.054291 
	C2521.529297,500.648956 2516.482422,505.914185 2516.245605,511.672211 
	C2516.028076,516.958557 2519.708984,521.527344 2526.284180,523.884033 
	C2529.096924,524.892151 2531.972656,525.781433 2534.882568,526.450317 
	C2544.337402,528.623596 2553.625244,531.073486 2560.667969,538.926208 
	C2561.000000,544.354919 2561.000000,549.709900 2560.682129,555.633057 
	C2555.909424,560.134155 2551.454590,564.067078 2547.000000,568.000000 
	C2539.979004,568.000000 2532.958008,568.000000 2525.468506,568.000000 
z"/>
<path fill="#000000" opacity="1.000000" stroke="none" 
	d="
M2142.468750,568.000000 
	C2144.445801,561.835876 2146.690430,555.577637 2149.494629,549.580933 
	C2150.114014,548.256104 2152.701660,547.173523 2154.404053,547.142212 
	C2165.897705,546.930786 2177.402344,546.856995 2188.889160,547.205872 
	C2190.795898,547.263733 2193.389648,549.194885 2194.359863,550.973022 
	C2197.221924,556.218140 2199.428223,561.821106 2201.945312,567.642029 
	C2182.312500,568.000000 2162.625000,568.000000 2142.468750,568.000000 
z"/>
<path fill="#000000" opacity="1.000000" stroke="none" 
	d="
M1560.468628,568.000000 
	C1562.628906,561.740051 1565.094482,555.401794 1568.027100,549.287598 
	C1568.601562,548.089966 1570.975586,547.151672 1572.535645,547.127319 
	C1584.019165,546.948425 1595.510742,546.883301 1606.989258,547.182190 
	C1608.863403,547.231018 1611.522217,548.812195 1612.380127,550.442139 
	C1615.235840,555.867615 1617.436523,561.637939 1619.944092,567.638062 
	C1600.312378,568.000000 1580.624878,568.000000 1560.468628,568.000000 
z"/>
<path fill="#1C1F2A" opacity="1.000000" stroke="none" 
	d="
M1255.468506,568.000000 
	C1251.372070,565.204163 1247.523071,562.648499 1244.166626,559.557739 
	C1238.752441,554.572021 1236.236450,547.983337 1236.099854,540.782043 
	C1235.838013,526.962097 1236.017700,513.133728 1236.015625,499.308899 
	C1236.015625,498.975922 1235.909058,498.563599 1236.062988,498.323059 
	C1236.938599,496.954559 1237.878052,495.627014 1238.795898,494.285583 
	C1239.850952,495.657349 1241.788330,497.008270 1241.821289,498.404144 
	C1242.084351,509.557983 1241.851807,520.722900 1242.064819,531.878845 
	C1242.152954,536.497864 1242.336060,541.274597 1243.549561,545.684143 
	C1248.000366,561.858337 1270.058350,568.177856 1282.457764,556.755066 
	C1288.281738,551.389832 1289.750977,543.770691 1289.922974,536.160461 
	C1290.178711,524.839722 1289.993896,513.509033 1290.004761,502.182587 
	C1290.006226,500.684113 1289.696777,499.053894 1290.184937,497.724701 
	C1290.664307,496.419495 1291.976685,495.420288 1292.923584,494.286865 
	C1293.916870,495.369141 1295.348022,496.299530 1295.789673,497.573120 
	C1296.308594,499.069092 1295.994385,500.863098 1295.995483,502.527924 
	C1296.003418,513.854370 1295.999634,525.180847 1295.999023,536.507263 
	C1295.998413,549.727722 1291.245972,560.162170 1278.719116,566.072754 
	C1278.152710,566.339844 1277.740845,566.933899 1277.128418,567.687866 
	C1269.979004,568.000000 1262.958130,568.000000 1255.468506,568.000000 
z"/>
<path fill="#1C1F2A" opacity="1.000000" stroke="none" 
	d="
M2561.000000,398.531433 
	C2557.784668,402.713165 2554.869385,406.748718 2551.295898,410.077271 
	C2541.747314,418.971039 2530.577881,420.236206 2518.879639,415.265564 
	C2507.647949,410.493347 2501.744385,401.748627 2500.940674,389.357697 
	C2499.928223,373.748810 2509.887451,361.599030 2522.794922,358.821289 
	C2537.270508,355.706116 2550.307129,358.916199 2558.655029,374.369995 
	C2559.115234,375.222137 2559.798096,375.954102 2560.688721,376.871002 
	C2561.000000,384.020966 2561.000000,391.041901 2561.000000,398.531433 
M2546.659424,405.879578 
	C2554.160889,400.213654 2555.886963,392.151672 2554.659668,383.646698 
	C2553.315186,374.327759 2548.030273,367.249390 2538.776855,364.286774 
	C2526.165283,360.248932 2513.883545,366.213531 2508.926514,378.261078 
	C2504.012695,390.203644 2508.875000,403.902161 2520.187744,409.986908 
	C2528.889893,414.667572 2540.909180,412.803162 2546.000000,405.999847 
	C2546.000000,405.999847 2545.980957,406.020874 2546.659424,405.879578 
z"/>
<path fill="#000000" opacity="1.000000" stroke="none" 
	d="
M0.999995,500.468658 
	C2.555216,502.817291 4.503593,505.489929 5.601943,508.475281 
	C12.798653,528.036194 19.811617,547.664673 26.942291,567.635559 
	C18.373869,568.000000 9.747738,568.000000 1.000000,568.000000 
	C1.000000,545.645874 1.000000,523.291626 0.999995,500.468658 
z"/>
<path fill="#1C1F2A" opacity="1.000000" stroke="none" 
	d="
M2354.428467,568.000000 
	C2353.999756,560.344177 2354.405029,552.658081 2353.835938,545.044800 
	C2353.529785,540.951355 2352.396484,536.425476 2350.175049,533.058716 
	C2342.396729,521.269165 2333.979248,509.901642 2325.818115,498.363953 
	C2325.168213,497.445068 2324.624512,496.450897 2323.807373,495.129486 
	C2328.204834,493.121338 2331.056641,494.077972 2333.632080,497.851471 
	C2340.939697,508.558289 2348.495361,519.095642 2355.943848,529.706543 
	C2356.229736,530.113953 2356.416504,530.590820 2357.070557,531.839539 
	C2360.841797,526.553772 2364.091553,522.043518 2367.293701,517.499756 
	C2372.083740,510.703186 2376.860352,503.896912 2381.602051,497.066589 
	C2383.703125,494.039856 2386.302734,493.233337 2390.289551,495.063934 
	C2388.800537,497.497131 2387.579346,499.788574 2386.084473,501.885040 
	C2378.752686,512.168030 2371.099609,522.233765 2364.112793,532.744019 
	C2361.871826,536.115417 2360.520020,540.544495 2360.176758,544.609131 
	C2359.548584,552.046875 2359.974609,559.573669 2359.980469,567.531616 
	C2358.285645,568.000000 2356.571289,568.000000 2354.428467,568.000000 
z"/>
<path fill="#1C1F2A" opacity="1.000000" stroke="none" 
	d="
M884.428467,568.000000 
	C883.998169,559.846558 884.267944,551.679443 883.856262,543.546753 
	C883.699097,540.442200 882.610901,536.987183 880.867371,534.427307 
	C871.994751,521.400757 862.768188,508.615265 853.422180,495.401215 
	C857.697754,492.989868 860.539978,493.886658 862.973633,497.443970 
	C869.072144,506.358185 875.240540,515.224976 881.436462,524.071838 
	C883.016113,526.327271 884.802917,528.437561 887.109070,531.405396 
	C892.183655,524.285645 896.785034,517.876465 901.334351,511.430603 
	C904.497437,506.948944 907.720093,502.500458 910.669250,497.879608 
	C912.867798,494.434753 915.563477,493.148438 920.328857,494.907379 
	C918.263733,498.056824 916.443542,501.053101 914.409058,503.896027 
	C907.154114,514.033813 899.707031,524.036987 892.622314,534.291199 
	C891.122986,536.461182 890.228638,539.452393 890.123535,542.107544 
	C889.794617,550.415283 889.976440,558.743225 889.980164,567.531677 
	C888.285645,568.000000 886.571289,568.000000 884.428467,568.000000 
z"/>
<path fill="#1B202A" opacity="1.000000" stroke="none" 
	d="
M1748.468628,568.000000 
	C1748.002319,545.865540 1747.999512,523.731079 1748.017090,501.596588 
	C1748.018433,499.937073 1747.779175,498.120758 1748.370239,496.670013 
	C1748.810547,495.588898 1750.410645,494.344269 1751.497437,494.341278 
	C1752.583862,494.338257 1754.194092,495.575165 1754.635254,496.653076 
	C1755.228516,498.101898 1754.987549,499.919617 1754.989258,501.579071 
	C1755.007690,519.220215 1754.980591,536.861389 1755.017212,554.502441 
	C1755.029907,560.586182 1755.429443,560.959717 1761.613403,560.986389 
	C1771.265991,561.028015 1780.922241,561.155090 1790.570068,560.937134 
	C1795.149780,560.833679 1797.648071,562.163330 1796.976318,567.571716 
	C1780.979126,568.000000 1764.958130,568.000000 1748.468628,568.000000 
z"/>
<path fill="#1C1F2A" opacity="1.000000" stroke="none" 
	d="
M383.437500,568.000000 
	C382.998108,547.186646 383.015137,526.373291 382.982697,505.559937 
	C382.973114,499.406586 382.591797,499.070496 376.444275,499.008972 
	C371.616058,498.960663 366.776215,499.136200 361.966400,498.826477 
	C360.742401,498.747650 359.612915,497.201355 358.440002,496.329346 
	C359.561981,495.575439 360.678467,494.174469 361.806763,494.164886 
	C378.289093,494.025055 394.773407,494.026367 411.255646,494.172394 
	C412.366943,494.182251 413.465576,495.618164 414.570099,496.390808 
	C413.372864,497.243317 412.215546,498.756958 410.971344,498.832184 
	C405.993286,499.133057 400.977966,499.194122 395.996216,498.946198 
	C391.380005,498.716492 389.909363,500.651459 389.938812,505.122284 
	C390.074738,525.768433 389.975555,546.416138 389.980316,567.531616 
	C387.958344,568.000000 385.916656,568.000000 383.437500,568.000000 
z"/>
<path fill="#1C1F2A" opacity="1.000000" stroke="none" 
	d="
M228.437500,568.000000 
	C228.000656,545.854431 227.996124,523.708862 228.012360,501.563263 
	C228.013565,499.903107 227.774597,498.082703 228.371841,496.635895 
	C228.815445,495.561279 230.439011,494.334869 231.526520,494.344604 
	C232.612946,494.354370 234.064545,495.611847 234.657318,496.702240 
	C235.231720,497.758728 234.983368,499.298401 234.983475,500.625885 
	C234.985275,522.771729 234.969299,544.917603 234.978653,567.531738 
	C232.958328,568.000000 230.916672,568.000000 228.437500,568.000000 
z"/>
<path fill="#000000" opacity="1.000000" stroke="none" 
	d="
M2547.474121,568.000000 
	C2551.454590,564.067078 2555.909424,560.134155 2560.682129,556.100586 
	C2561.000000,559.929688 2561.000000,563.859375 2561.000000,568.000000 
	C2556.650879,568.000000 2552.299561,568.000000 2547.474121,568.000000 
z"/>
<path fill="#1C1F2A" opacity="1.000000" stroke="none" 
	d="
M953.363037,22.627188 
	C976.184753,92.069824 998.869629,161.140656 1021.554443,230.211487 
	C1022.081299,230.232635 1022.608093,230.253784 1023.134888,230.274933 
	C1023.833801,228.761261 1024.690063,227.299454 1025.208740,225.726379 
	C1042.157715,174.320526 1059.081665,122.906357 1075.991821,71.487709 
	C1081.662842,54.244015 1087.390991,37.017826 1092.856445,19.708954 
	C1094.171753,15.543934 1096.274048,13.921324 1100.697998,13.930552 
	C1155.696899,14.045263 1210.696045,13.995502 1265.695190,14.019665 
	C1271.749146,14.022325 1271.995361,14.388646 1271.995728,21.821373 
	C1272.001465,120.653099 1272.000000,219.484833 1272.000122,318.316559 
	C1272.000122,348.982727 1272.005981,379.648895 1271.994873,410.315063 
	C1271.992065,417.860718 1271.869751,417.993896 1264.564209,417.996521 
	C1229.231445,418.009216 1193.898804,418.008667 1158.566040,417.997406 
	C1151.125366,417.995056 1151.006226,417.877319 1151.005371,410.447693 
	C1150.997070,339.948853 1151.005127,269.449982 1150.977417,198.951141 
	C1150.976440,196.588837 1150.644775,194.226654 1150.467285,191.864426 
	C1149.966797,191.782547 1149.466187,191.700684 1148.965698,191.618805 
	C1148.288818,192.983887 1147.448242,194.292938 1146.959351,195.722336 
	C1136.663818,225.822281 1126.411743,255.937103 1116.143188,286.046295 
	C1101.735229,328.293243 1087.285156,370.525940 1072.970337,412.804382 
	C1071.702393,416.549347 1069.751953,418.072876 1065.758667,418.056427 
	C1037.259644,417.939087 1008.759583,417.940094 980.260559,418.056030 
	C976.285400,418.072235 974.320068,416.593079 973.031006,412.834930 
	C961.954895,380.544464 950.751587,348.297424 939.510010,316.064026 
	C925.582214,276.128662 911.585754,236.217270 897.595215,196.303787 
	C897.089478,194.860886 896.332764,193.505951 895.692993,192.110031 
	C895.251892,192.184387 894.810791,192.258759 894.369629,192.333115 
	C894.246521,194.552948 894.016357,196.772751 894.015747,198.992615 
	C893.996460,269.158142 894.001160,339.323669 893.997009,409.489197 
	C893.996521,417.989471 893.982971,418.000305 885.392395,418.001343 
	C850.392944,418.005524 815.393555,418.009460 780.394104,417.996307 
	C773.204712,417.993591 773.008423,417.809387 773.007935,410.774414 
	C772.999268,280.943176 772.999390,151.111954 773.007629,21.280729 
	C773.008057,14.206321 773.210388,14.009159 780.345642,14.007655 
	C834.178101,13.996316 888.010559,14.000060 941.843018,14.001132 
	C950.529541,14.001305 950.529541,14.005982 953.363037,22.627188 
z"/>
<path fill="#1C1F2A" opacity="1.000000" stroke="none" 
	d="
M1299.000000,41.000000 
	C1299.004395,33.501534 1299.141113,26.499710 1298.963501,19.505867 
	C1298.858521,15.370734 1300.605957,13.680266 1304.625977,13.994718 
	C1305.950562,14.098338 1307.290771,14.001142 1308.623779,14.001135 
	C1418.266724,14.000651 1527.909790,14.000648 1637.552734,14.001287 
	C1638.885742,14.001295 1640.226318,14.104280 1641.550293,13.997269 
	C1645.735107,13.659054 1647.259521,15.710489 1647.017944,19.680794 
	C1646.866333,22.170788 1646.999634,24.677935 1646.999634,27.177383 
	C1646.999390,57.337532 1647.006836,87.497688 1646.991211,117.657829 
	C1646.987549,124.788902 1646.791016,124.990990 1639.717041,124.992180 
	C1573.731323,125.003319 1507.745483,124.998329 1441.759766,125.001755 
	C1433.009155,125.002205 1433.005981,125.011902 1433.000977,133.862717 
	C1432.996582,141.694351 1432.987305,149.526031 1433.004028,157.357620 
	C1433.020020,164.861420 1433.126465,164.987595 1440.481812,164.990768 
	C1471.308472,165.004105 1502.135132,164.996185 1532.961792,164.997940 
	C1541.126709,164.998398 1549.293945,165.126358 1557.455322,164.958817 
	C1561.550415,164.874725 1563.050781,166.518143 1563.037964,170.576370 
	C1562.946289,199.403168 1562.902100,228.230911 1563.075317,257.056976 
	C1563.106323,262.227448 1560.680054,263.063385 1556.318359,263.052612 
	C1517.993530,262.957977 1479.668335,262.996246 1441.343262,263.002808 
	C1433.017456,263.004211 1433.010498,263.018311 1433.002197,271.279358 
	C1432.994385,279.110992 1433.206787,286.949829 1432.930298,294.771637 
	C1432.758301,299.638702 1434.728882,301.087769 1439.397949,301.066956 
	C1470.057373,300.930176 1500.717773,300.999054 1531.377808,300.999847 
	C1567.369995,301.000793 1603.362183,300.994995 1639.354370,301.005920 
	C1646.862915,301.008209 1646.989502,301.127533 1646.992188,308.477966 
	C1647.004639,342.637238 1647.006592,376.796539 1646.988892,410.955811 
	C1646.985474,417.732056 1646.728149,417.989746 1639.920410,417.990356 
	C1528.611084,418.000610 1417.301880,418.000671 1305.992554,417.990173 
	C1299.148560,417.989532 1299.005981,417.817719 1299.005615,410.418640 
	C1298.998901,287.445770 1299.000366,164.472885 1299.000000,41.000000 
z"/>
<path fill="#1C1F2A" opacity="1.000000" stroke="none" 
	d="
M1673.000000,364.000000 
	C1673.000000,250.353683 1672.999634,137.207382 1673.002319,24.061071 
	C1673.002441,22.061741 1672.526611,19.861326 1673.208862,18.121933 
	C1673.840698,16.511360 1675.555420,15.100634 1677.128418,14.166079 
	C1678.121948,13.575690 1679.730713,14.003749 1681.063477,14.003649 
	C1721.056274,14.000650 1761.049072,13.997031 1801.041870,14.004832 
	C1808.975952,14.006380 1808.995239,14.027576 1808.995605,22.168537 
	C1809.000854,112.152344 1808.999268,202.136154 1809.001831,292.119965 
	C1809.001831,293.952759 1809.057129,295.785889 1809.037476,297.618317 
	C1809.006958,300.473328 1810.309814,301.977844 1813.244385,301.955017 
	C1815.076904,301.940765 1816.909912,301.997772 1818.742676,301.997864 
	C1875.732422,302.000610 1932.722168,301.997986 1989.711914,302.002899 
	C1997.982788,302.003632 1997.996216,302.019196 1997.997559,310.334625 
	C1998.003052,343.661957 1998.005371,376.989319 1997.994995,410.316650 
	C1997.992676,417.857239 1997.870728,417.992493 1990.561035,417.993042 
	C1887.246338,418.001099 1783.931519,418.000946 1680.616821,417.994171 
	C1673.135864,417.993652 1673.014648,417.868469 1673.006104,410.491028 
	C1672.988403,395.160675 1673.000366,379.830353 1673.000000,364.000000 
z"/>
<path fill="#1C1F2A" opacity="1.000000" stroke="none" 
	d="
M2079.000000,14.000623 
	C2104.333008,14.001346 2129.166260,13.989541 2153.999268,14.011052 
	C2160.726562,14.016879 2160.990234,14.283813 2160.990723,21.126379 
	C2161.000488,150.958527 2161.000488,280.790680 2160.993164,410.622833 
	C2160.992676,417.790070 2160.799072,417.988892 2153.750000,417.991302 
	C2113.583740,418.005035 2073.417480,418.005035 2033.251099,417.991394 
	C2026.202881,417.988983 2026.008179,417.789795 2026.007690,410.624390 
	C2025.999756,280.958893 2025.999878,151.293427 2026.006104,21.627939 
	C2026.006470,14.136195 2026.131104,14.016021 2033.500732,14.007073 
	C2048.500488,13.988864 2063.500244,14.000993 2079.000000,14.000623 
z"/>
<path fill="#1C1F2A" opacity="1.000000" stroke="none" 
	d="
M720.324158,521.314636 
	C726.551331,517.686340 732.724182,517.988037 736.072510,521.818481 
	C739.484253,525.721497 739.966064,532.248413 737.130798,536.153809 
	C733.294617,541.437744 726.001160,542.446899 720.841187,538.407654 
	C716.006226,534.622803 715.655029,527.217468 720.324158,521.314636 
z"/>
<path fill="#1C1F2A" opacity="1.000000" stroke="none" 
	d="
M1431.590088,539.885376 
	C1425.088745,541.656860 1420.512573,540.234131 1417.589111,535.777649 
	C1415.144653,532.051819 1415.619629,525.953735 1418.649536,522.163330 
	C1421.279785,518.872681 1427.151489,517.170715 1431.403687,519.622864 
	C1434.103027,521.179565 1436.784668,524.260559 1437.640015,527.192932 
	C1439.165894,532.424377 1437.051270,537.006836 1431.590088,539.885376 
z"/>
<path fill="#000000" opacity="1.000000" stroke="none" 
	d="
M440.663330,210.424576 
	C441.380798,186.209641 450.489197,165.812607 466.896973,149.068436 
	C481.582794,134.081497 499.607025,124.765465 520.743225,121.982674 
	C550.325745,118.087822 575.865662,127.216377 597.218445,147.177139 
	C613.240356,162.154495 622.585571,181.246460 624.904846,203.306717 
	C626.882629,222.118851 623.663208,239.947174 614.624939,256.785492 
	C600.353760,283.372955 578.273499,299.564636 548.909973,304.698242 
	C517.071167,310.264526 489.103424,300.983673 466.514496,277.800781 
	C450.942596,261.819397 441.878448,242.449966 440.961151,219.755875 
	C440.841309,216.791290 440.702301,213.827469 440.663330,210.424576 
z"/>
<path fill="#000000" opacity="1.000000" stroke="none" 
	d="
M1102.333008,545.137817 
	C1092.072388,564.144714 1071.269775,566.182129 1057.451050,556.343445 
	C1043.051758,546.091431 1041.057861,521.402344 1052.999146,508.303070 
	C1063.725464,496.536560 1081.811523,494.820160 1094.305176,505.114502 
	C1103.230835,512.468811 1107.810547,527.082581 1104.236328,539.587402 
	C1103.733887,541.345764 1103.084717,543.062195 1102.333008,545.137817 
z"/>
<path fill="#000000" opacity="1.000000" stroke="none" 
	d="
M1587.267822,506.451324 
	C1588.129761,505.064209 1588.832275,503.989868 1590.241699,501.834503 
	C1596.251099,515.028870 1601.855957,527.334961 1607.855469,540.507812 
	C1595.417969,540.507812 1584.299805,540.507812 1571.824829,540.507812 
	C1577.190918,528.660339 1582.149658,517.712219 1587.267822,506.451324 
z"/>
<path fill="#000000" opacity="1.000000" stroke="none" 
	d="
M2187.577393,535.349243 
	C2188.067871,536.790161 2188.443604,537.891418 2188.740723,539.013428 
	C2188.816650,539.299377 2188.644287,539.651123 2188.493408,540.485474 
	C2177.457520,540.485474 2166.337402,540.485474 2153.756104,540.485474 
	C2159.789795,527.130066 2165.435059,514.634338 2171.659424,500.856293 
	C2177.330078,513.137024 2182.381836,524.077209 2187.577393,535.349243 
z"/>
<path fill="#000000" opacity="1.000000" stroke="none" 
	d="
M2546.020508,405.979767 
	C2540.909180,412.803162 2528.889893,414.667572 2520.187744,409.986908 
	C2508.875000,403.902161 2504.012695,390.203644 2508.926514,378.261078 
	C2513.883545,366.213531 2526.165283,360.248932 2538.776855,364.286774 
	C2548.030273,367.249390 2553.315186,374.327759 2554.659668,383.646698 
	C2555.886963,392.151672 2554.160889,400.213654 2546.284668,405.587646 
	C2543.271729,400.579376 2540.633545,395.863037 2537.885498,390.950500 
	C2538.711182,390.351349 2539.332275,389.847931 2540.002930,389.422607 
	C2544.757568,386.407959 2546.280518,382.490021 2545.047119,377.182983 
	C2543.787109,371.761536 2539.852295,370.234344 2535.027588,370.058533 
	C2531.043457,369.913300 2527.023682,369.793945 2523.073486,370.195129 
	C2521.685303,370.336121 2519.356689,372.025421 2519.326660,373.061829 
	C2519.038086,383.025055 2519.071045,393.001465 2519.272949,402.968811 
	C2519.291992,403.903564 2521.118652,405.539856 2522.065918,405.511658 
	C2523.027100,405.483032 2524.559082,403.901672 2524.747803,402.811066 
	C2525.196533,400.219391 2524.784912,397.485443 2525.156250,394.870758 
	C2525.333740,393.619843 2526.282959,391.843048 2527.279297,391.517090 
	C2528.341064,391.169769 2530.322510,391.868561 2531.110352,392.788727 
	C2533.258545,395.297424 2535.364258,397.981934 2536.794434,400.932343 
	C2538.773438,405.016022 2541.741943,406.495636 2546.020508,405.979767 
z"/>
<path fill="#1C1F2A" opacity="1.000000" stroke="none" 
	d="
M2546.010254,405.989807 
	C2541.741943,406.495636 2538.773438,405.016022 2536.794434,400.932343 
	C2535.364258,397.981934 2533.258545,395.297424 2531.110352,392.788727 
	C2530.322510,391.868561 2528.341064,391.169769 2527.279297,391.517090 
	C2526.282959,391.843048 2525.333740,393.619843 2525.156250,394.870758 
	C2524.784912,397.485443 2525.196533,400.219391 2524.747803,402.811066 
	C2524.559082,403.901672 2523.027100,405.483032 2522.065918,405.511658 
	C2521.118652,405.539856 2519.291992,403.903564 2519.272949,402.968811 
	C2519.071045,393.001465 2519.038086,383.025055 2519.326660,373.061829 
	C2519.356689,372.025421 2521.685303,370.336121 2523.073486,370.195129 
	C2527.023682,369.793945 2531.043457,369.913300 2535.027588,370.058533 
	C2539.852295,370.234344 2543.787109,371.761536 2545.047119,377.182983 
	C2546.280518,382.490021 2544.757568,386.407959 2540.002930,389.422607 
	C2539.332275,389.847931 2538.711182,390.351349 2537.885498,390.950500 
	C2540.633545,395.863037 2543.271729,400.579376 2545.945557,405.658295 
	C2545.980957,406.020874 2546.000000,405.999847 2546.010254,405.989807 
M2534.568604,375.484589 
	C2531.224609,375.525055 2526.900146,372.842407 2525.240967,377.995636 
	C2523.560547,383.214447 2525.895752,385.469086 2532.529541,384.844147 
	C2534.640381,384.645294 2536.599121,382.833923 2538.627441,381.760345 
	C2537.522705,379.778381 2536.417969,377.796448 2534.568604,375.484589 
z"/>
<path fill="#000000" opacity="1.000000" stroke="none" 
	d="
M2534.940918,375.649536 
	C2536.417969,377.796448 2537.522705,379.778381 2538.627441,381.760376 
	C2536.599121,382.833923 2534.640381,384.645294 2532.529541,384.844147 
	C2525.895752,385.469086 2523.560547,383.214447 2525.240967,377.995636 
	C2526.900146,372.842407 2531.224609,375.525055 2534.940918,375.649536 
z"/>
</svg>